<svg xmlns="http://www.w3.org/2000/svg" viewBox="0 0 665.18 665"><defs><style>.cls-1{fill:#f9a908;}.cls-2{fill:none;}.cls-2,.cls-3,.cls-5{stroke:#fff;stroke-miterlimit:10;}.cls-2,.cls-3{stroke-width:7px;}.cls-3,.cls-4,.cls-5{fill:#fff;}.cls-5{stroke-width:9px;opacity:0.49;}</style></defs><title>artLogo_1</title><g id="Layer_2" data-name="Layer 2"><g id="circle"><ellipse class="cls-1" cx="332.59" cy="332.5" rx="332.59" ry="332.5"/></g><g id="Layer_4" data-name="Layer 4"><path class="cls-2" d="M478,540,157.23,474.94,321.9,343.73c15.09,17.7,24.36,41.72,30.63,64.64.9,32.87,25.78,63.6,57.74,71.33,18.39,4.45,37.49,1.8,55.64-4.21Z"/><path class="cls-3" d="M478,540,157.23,474.94,321.9,343.73c15.09,17.7,24.36,41.72,30.63,64.64.9,32.87,25.78,63.6,57.74,71.33,18.39,4.45,37.49,1.8,55.64-4.21Z"/><polyline class="cls-2" points="157.09 475.05 157.23 474.94 156.84 474.86"/><polyline class="cls-2" points="321.9 343.73 425.82 260.93 465.91 475.49"/><path class="cls-4" d="M467.5,481.28c32.49-10.94,60.11-31.93,91.91-44.33,25.69-10,58.35-10.54,83,2.74,6.8,3.66,12.87-6.7,6.06-10.36-25.89-13.92-60.21-15.11-87.78-5.61-33.84,11.65-62.46,34.57-96.4,46-7.28,2.45-4.16,14,3.19,11.57Z"/><path class="cls-4" d="M219.77,259.4c-2-.21-3.9-.5-5.84-.82-2.44-.39-5.6.21-6.78,2.76-5.34,11.53-3.49,24.57,3.76,34.91,7.42,10.6,19.22,16.7,31.38,20.26,13.72,4,28.17,4.76,41.87,8.86,13.41,4,24.4,12.09,33.5,22.59,5.06,5.85,13.52-2.67,8.49-8.49-7.65-8.83-16.87-16.48-27.53-21.4-12.32-5.68-25.57-7.49-38.8-9.89-11.4-2.07-23.51-4.78-32.79-12.13-8.15-6.46-14.24-18.45-9.51-28.67l-6.78,2.76c3,.48,6,.92,9,1.24,7.67.83,7.61-11.18,0-12Z"/><path class="cls-4" d="M174.48,164.09c2.9-3.81,9.17-3.16,13-1.54,6,2.54,9.69,8.65,12.75,14.1,3.78,6.73,14.15.69,10.36-6.06-5.06-9-11.82-17.66-22.28-20.37-9.27-2.4-18.38.15-24.21,7.81-4.68,6.14,5.74,12.13,10.36,6.06Z"/><path class="cls-5" d="M362.47,209a82.49,82.49,0,0,1-142.7,56.4,32.73,32.73,0,0,0,11.43-.59c6.14-1.58,11.9-6.47,12.4-12.79.74-9.23-9.48-17.52-6.72-26.36,1.57-5,7.15-8.94,6.25-14.12-1-5.91-8.84-6.9-14.46-9-8.76-3.27-14.31-11.79-18.62-20.08-1.52-2.92-3-5.93-4.62-8.84a82.51,82.51,0,0,1,157,35.38Z"/><path class="cls-2" d="M362.47,209a82.49,82.49,0,0,1-142.7,56.4,32.73,32.73,0,0,0,11.43-.59c6.14-1.58,11.9-6.47,12.4-12.79.74-9.23-9.48-17.52-6.72-26.36,1.57-5,7.15-8.94,6.25-14.12-1-5.91-8.84-6.9-14.46-9-8.76-3.27-14.31-11.79-18.62-20.08-1.52-2.92-3-5.93-4.62-8.84a82.51,82.51,0,0,1,157,35.38Z"/></g></g></svg>