<svg xmlns="http://www.w3.org/2000/svg" viewBox="0 0 665.18 665"><defs><style>.cls-1{fill:#f9a908;}.cls-2{fill:#4671ee;}.cls-3,.cls-4,.cls-5{fill:#fff;}.cls-4,.cls-5{opacity:0.6;}.cls-5,.cls-6{stroke:#fff;stroke-miterlimit:10;stroke-width:10px;}.cls-6{fill:none;}</style></defs><title>codingLogo</title><g id="Layer_2" data-name="Layer 2"><g id="circle"><ellipse class="cls-1" cx="332.59" cy="332.5" rx="332.59" ry="332.5"/></g><g id="Layer_6" data-name="Layer 6"><path class="cls-2" d="M556,453"/><path class="cls-3" d="M524,163a6,6,0,0,1,6,6V399a6,6,0,0,1-6,6H145a6,6,0,0,1-6-6V169a6,6,0,0,1,6-6H524m0-6H145a12,12,0,0,0-12,12V399a12,12,0,0,0,12,12H524a12,12,0,0,0,12-12V169a12,12,0,0,0-12-12Z"/><rect class="cls-4" x="165.97" y="189" width="336" height="189" rx="12" ry="12"/><path class="cls-3" d="M380.76,404.75c-6,41.2-28.93,70-47.79,70.29s-42.3-28.14-48.53-69.65Z"/><rect class="cls-5" x="224.97" y="470" width="220" height="48" rx="12" ry="12"/><rect class="cls-6" x="224.97" y="470" width="220" height="48" rx="12" ry="12"/></g></g></svg>