<svg xmlns="http://www.w3.org/2000/svg" viewBox="0 0 665.18 665"><defs><style>.cls-1{fill:#f9a908;}.cls-2{fill:#fff;}.cls-3{fill:none;stroke:#fff;stroke-miterlimit:10;stroke-width:7px;}.cls-4{opacity:0.62;}</style></defs><title>designLogo</title><g id="Layer_2" data-name="Layer 2"><g id="circle"><ellipse class="cls-1" cx="332.59" cy="332.5" rx="332.59" ry="332.5"/></g><g id="uiux1"><path class="cls-2" d="M268.47,193V326H268c-36.45,0-66-29.77-66-66.5S231.52,193,268,193Z"/><path class="cls-2" d="M399,550c-73,.67-181-.67-254,0,2.67-56.67,8-88,32-148,5.84-15.58,37.15-57.33,91.5-58V505.5a12,12,0,0,0,12,12H396.9C397.85,527.93,398.5,538.71,399,550Z"/></g><g id="uiux2"><path class="cls-3" d="M334,259.5c0,36.56-29.28,66.23-65.5,66.49V193C304.69,193.27,334,222.94,334,259.5Z"/><path class="cls-3" d="M396.9,517.5H280.47a12,12,0,0,1-12-12V344c1.48,0,3,0,4.5,0,52.39,1.5,83,42,92,56C384.9,440.66,393.18,476.45,396.9,517.5Z"/><g class="cls-4"><path class="cls-2" d="M519.47,127.5v378a12,12,0,0,1-12,12H396.9a378.88,378.88,0,0,0-6.59-45A306.58,306.58,0,0,0,365,400c-6.28-9.77-23.1-32.46-50.5-45.78A100.68,100.68,0,0,0,273,344c-1.52,0-3,0-4.5,0V326a65.5,65.5,0,0,0,46-19.3,66.85,66.85,0,0,0,0-94.38,65.5,65.5,0,0,0-46-19.3V127.5a12,12,0,0,1,12-12h227A12,12,0,0,1,519.47,127.5Z"/></g></g></g></svg>