<svg xmlns="http://www.w3.org/2000/svg" viewBox="0 0 665.18 665"><defs><style>.cls-1{fill:#f9a908;}.cls-2,.cls-4,.cls-5{fill:#fff;}.cls-3{fill:none;stroke-width:8px;}.cls-3,.cls-4{stroke:#fff;stroke-miterlimit:10;}.cls-5{opacity:0.49;}</style></defs><title>filmLogo</title><g id="Layer_2" data-name="Layer 2"><g id="circle"><ellipse class="cls-1" cx="332.59" cy="332.5" rx="332.59" ry="332.5"/></g><g id="photo"><circle class="cls-2" cx="438.18" cy="228.96" r="55.96"/><rect class="cls-3" x="135.97" y="241.09" width="393.62" height="250.91"/><path class="cls-4" d="M332.31,293.32a81.62,81.62,0,1,0,81.62,81.62A81.62,81.62,0,0,0,332.31,293.32Zm0,138a56.43,56.43,0,1,1,56.43-56.43A56.44,56.44,0,0,1,332.31,431.37Z"/><circle class="cls-5" cx="332.31" cy="374.94" r="56.43"/><rect class="cls-5" x="165.81" y="211.24" width="110.06" height="29.85"/><rect class="cls-5" x="193.8" y="188.86" width="49.44" height="22.39"/><rect class="cls-2" x="193.8" y="188.86" width="49.44" height="7.46"/><circle class="cls-5" cx="438.47" cy="241.5" r="148.5"/></g></g></svg>