<svg xmlns="http://www.w3.org/2000/svg" viewBox="0 0 503 768"><defs><style>.cls-1{fill:#fff;}.cls-2{fill:#f9a908;stroke:#fff;}.cls-2,.cls-3,.cls-8,.cls-9{stroke-miterlimit:10;}.cls-2,.cls-3{stroke-width:5px;}.cls-3,.cls-8,.cls-9{fill:none;stroke:#f9a908;}.cls-4{font-size:40px;font-family:Avenir-Medium, Avenir;}.cls-5{letter-spacing:-0.09em;}.cls-6{font-size:30px;font-family:Avenir-Roman, Avenir;}.cls-7{letter-spacing:0em;}.cls-9{stroke-width:3px;}</style></defs><title>clickstream</title><g id="Layer_2" data-name="Layer 2"><g id="Layer_1-2" data-name="Layer 1"><rect class="cls-1" width="503" height="768"/><path class="cls-2" d="M283.62,477.27c12.7-10.17,32.28-29.23,41.28-58.35a107,107,0,0,0,3.8-17.18c2,.7,37.7,12.76,62.18-7.94,14-11.81,25.27-35.13,15.79-49.47-5.7-8.62-19.59-15-28.21-10.06-8.05,4.66-11.3,19.16-3.27,33.11-6.33-1.31-15.71-3.09-27.15-4.6-31.93-4.22-50.74-6.71-61.22-1.13C266.3,372.56,266.1,420.64,283.62,477.27Z"/><path class="cls-2" d="M152.39,351.42c-.93-5.37-.58-.52-.62-5.44-.06-6.48,4.71-12.22,10.65-14.23,8.68-2.94,17.9,2.72,20.72,9.33a15.06,15.06,0,0,1,.86,8.12,17,17,0,0,1-5.25,9.69c5.42-1.8,13.93-5.72,18.74-14,9.34-16.06-9-42.52-12.12-49.28-6.05-13-11.43-26-12.1-28.61,4.71,3.9,13.44,13.65,21.51,18.86,18.85,12.15,30.16,36,30.09,55-.09,26.08-19.65,42.69-23,45.48A33.69,33.69,0,0,0,214,400c11.9,7.52,24.6,5,27.18,4.44a54.45,54.45,0,0,1-10.56-20.28c-5.32-19.86.26-47.37,21.53-60.38,20.85-12.75,45.35-4.56,51-2.67a67.74,67.74,0,0,1,16.62,8.25c-20.73-7.3-32.21-20.9-29.93-29.69,2.64-10.19,24.94-19.26,40-13.83,21,7.57,32.51,41,21.78,59.44-10.53,18.13-43.18,25.59-69,6.86,3.36,2.11,33.12,21.55,35.56,58a73.36,73.36,0,0,1-35.94,67.64c-36.49,21.09-82.75,2.43-106.31-23.09-19.1-20.69-22.51-45-23.29-55.43-10.41-4.65-27.93-14.54-38.91-33.78-15.21-26.63-11-61.86,4.34-79,8.73-9.78,24.86-16.28,30.91-17.58-4.71,7.15-17.48,18.86-20.84,31.86C123.16,320.41,143.14,349.63,152.39,351.42Z"/><text></text><path class="cls-3" d="M374.25,215c-21.92,64.85-94.05,100.23-161.1,79S109.51,203,131.44,138.2s94.05-100.23,161.1-79S396.17,150.14,374.25,215Z"/><text class="cls-4" transform="translate(110.09 572.52)">CLICKSTREAM <tspan x="-5.22" y="48">VISUALIZ</tspan><tspan class="cls-5" x="165.26" y="48">A</tspan><tspan x="189.74" y="48">TION</tspan></text><text class="cls-6" transform="translate(84.85 707.95) rotate(-0.21)">Ski<tspan class="cls-7" x="38.88" y="0">l</tspan><tspan x="46.11" y="0">ls: Java, SQL, Angular</tspan></text><line class="cls-8" x1="195.61" y1="107.58" x2="195.61" y2="220.32"/><line class="cls-8" x1="325.59" y1="219.88" x2="196.07" y2="219.88"/><rect class="cls-8" x="196.07" y="156.35" width="13.88" height="63.53"/><rect class="cls-8" x="209.95" y="176.03" width="16.65" height="43.84"/><rect class="cls-8" x="226.6" y="128.61" width="16.65" height="91.27"/><rect class="cls-8" x="243.26" y="143.82" width="16.65" height="76.06"/><rect class="cls-8" x="259.91" y="160.82" width="16.65" height="59.06"/><rect class="cls-8" x="276.56" y="190.35" width="16.65" height="29.53"/><text></text><line class="cls-9" x1="94" y1="651" x2="412" y2="651"/></g></g></svg>