<svg xmlns="http://www.w3.org/2000/svg" viewBox="0 0 505 771"><defs><style>.cls-1,.cls-2,.cls-9{fill:#fff;}.cls-2,.cls-4{stroke:#f9a908;}.cls-2,.cls-4,.cls-8,.cls-9{stroke-miterlimit:10;}.cls-2{stroke-width:5px;}.cls-3{fill:#f9a908;}.cls-4,.cls-8{fill:none;}.cls-4{stroke-width:3px;}.cls-5{font-size:40px;font-family:Avenir-Medium, Avenir;}.cls-6{font-size:30px;font-family:Avenir-Roman, Avenir;}.cls-7{letter-spacing:0em;}.cls-8,.cls-9{stroke:#fff;}.cls-9{opacity:0.3;}</style></defs><title>discover_1</title><g id="Layer_2" data-name="Layer 2"><g id="Layer_1-2" data-name="Layer 1"><rect class="cls-1" width="503" height="768"/><rect class="cls-1" x="2" y="3" width="503" height="768"/><path class="cls-2" d="M74.1,195.75c6.4-4,10.46-9.8,9.63-15.06-1.27-8-13.66-12.72-21.91-11.07C45.1,173,32.49,205,43.06,219.8c9.07,12.72,37.3,15.8,62.87-2.31-1.35,1.47-3.75,9.37-3.28,19.69.35,7.59.39,11.92,1.91,13.87l41.69,3.35c-2.29-1.36-27.08-15.48-51.31-3.76C92,252.07,78,258.83,73.85,272.23c-5.67,18.29,8.63,43.64,37.62,57.61-6.21-4-13.34-4.38-17.86-1.1-4.76,3.45-5.34,10-4.61,14.05,2.4,13.21,24,27.57,41,19.9,20.31-9.17,21-17.95,19.48-29C137.92,323.68,122.56,309,111,299c6.42,19.5,23,33.43,41.86,35.2,22.91,2.14,38.38-14.68,39.47-15.9,9.65-10.84,7.46-19.66,13.82-33.25,8.77-18.73,25-27.81,43.7-38.32,44.41-24.92,120-17.29,151.74,15.14-3-6.85-25.08-37.85-54.43-48.64-29.52-10.85-66-5.06-75.72-1.32,1.72-.92,7.61-4.34,9.13-10.74,2.18-9.16-6-18.65-14.61-21.45-11.67-3.77-26.84,3.84-28.57,15.59-1.53,10.34,8.18,18.35,8.81,18.86A91.86,91.86,0,0,1,291,185c28.8-8.32,52.83,0,60.18,2.92a87.71,87.71,0,0,0-32.42-17.87c-55.75-16.41-106.9,32.28-110.47,35.79-1.5,2.37-10.68,16.41-27.9,18.73a37.66,37.66,0,0,1-17-1.73c-.55-4.69-3.14-21.56-17.29-31.69-13.28-9.51-28.85-7.45-40.8-5.87A86.13,86.13,0,0,0,74.1,195.75Z"/><path class="cls-3" d="M433.18,388.35c-21.92,64.85-94.05,100.23-161.1,79s-103.63-91-81.71-155.82,94.05-100.23,161.1-79S455.11,323.5,433.18,388.35Z"/><path class="cls-1" d="M243.07,200.91l2.17,6.47,7.32-7.32c-5-.85-9.85,3-8.26,8.44,1.5,5.18,8.06,6.65,12.13,3.7s5-8.11,10.06-10.44c4.27-2,10.22-1.22,11.32-7.12,1.4-7.49-10.07-10.7-11.48-3.17l-.15.79,2.74-3.56c-1.45.93-4.11,1-5.77,1.6a26.22,26.22,0,0,0-6.15,3.35,25.68,25.68,0,0,0-4.59,4.27,29.18,29.18,0,0,0-2.12,2.85l-.68,1.17q-2.48,3.45,4.64.76l1.74,4.21v-.8l-1.74,4.21.43-.4-5.79,1.53.51.09c4.13.7,8.9-2.63,7.32-7.32l-2.17-6.47c-2.43-7.23-13.93-4.13-11.48,3.17Z"/><line class="cls-4" x1="93" y1="656.5" x2="411" y2="656.5"/></g><g id="shell"><text class="cls-5" transform="translate(147.13 566.52)">DISCOVER,<tspan x="-73.28" y="48">SOCIAL NETWORK</tspan></text><text class="cls-6" transform="translate(68.38 713.53) rotate(-0.21)">Ski<tspan class="cls-7" x="38.88" y="0">l</tspan><tspan x="46.11" y="0">ls: UI/UX design, Angular</tspan></text><circle class="cls-8" cx="327.5" cy="314.5" r="20"/><circle class="cls-9" cx="285" cy="393" r="29.5"/><circle class="cls-8" cx="368" cy="384" r="20.5"/><circle class="cls-8" cx="277.5" cy="300.5" r="14"/><line class="cls-8" x1="335.5" y1="332.5" x2="356.5" y2="367.5"/><line class="cls-8" x1="317.5" y1="332.5" x2="299.5" y2="367.5"/><line class="cls-8" x1="278.5" y1="314.5" x2="282.5" y2="363.5"/><line class="cls-8" x1="291.5" y1="306.5" x2="308.5" y2="307.5"/><circle class="cls-9" cx="384.5" cy="307.5" r="12"/><line class="cls-8" x1="299.5" y1="367.5" x2="374.5" y2="314.5"/></g></g></svg>