<svg xmlns="http://www.w3.org/2000/svg" viewBox="0 0 503 768"><defs><style>.cls-1{fill:#fff;}.cls-2{fill:#f9a908;stroke:#fff;stroke-width:2px;}.cls-2,.cls-3,.cls-4,.cls-5{stroke-miterlimit:10;}.cls-3,.cls-4{fill:none;}.cls-3,.cls-4,.cls-5{stroke:#f9a908;}.cls-3{stroke-width:8px;}.cls-4{stroke-width:3px;}.cls-5{fill:#fcfcfc;}.cls-6{font-size:40px;font-family:Avenir-Medium, Avenir;}.cls-7{font-size:30px;font-family:Avenir-Roman, Avenir;}.cls-8{letter-spacing:0em;}</style></defs><title>malloc_3</title><g id="Layer_2" data-name="Layer 2"><g id="Layer_1-2" data-name="Layer 1"><rect class="cls-1" width="503" height="768"/><path class="cls-2" d="M383.72,475c30.35-6.41-91.07-33.13-90.06-34.84-7.6,24.85-23.82,39.56-37,37.91-2.63-.33-7.41-1.6-12.72-7.38-3.11-2.93-8.26-8.7-9.68-16.94-3.54-20.59,7.18-30.35,17.67-32.94,2.83-.7,13,.71,10.25,19.72-3.26-18.08,7.59-34.47,22.49-38.11,14.58-3.56,34.45,2.35,44.13,9.92,14.55,11.38,15.53,30.91,14.85,32.25-6.69,4.71,19.53-.11,20.63,9.51,1.53,13.41,12.13,10.83,22.69,24.18"/><path class="cls-2" d="M390,330.69c4-6.36,10.15-25.22,10-45.3-.1-15.31-16.25-58.36-19.45-64.8,0,9.15,4.87,49.11-1.42,69-4.37,13.82-8,21.27-14.05,26.83,2.17-6.67.22-12.9-2.56-15.43-7.5-6.81-21.29-4.92-26.46,1.57s-3.31,21.87,7.95,28c-.54,3-14.89,30.54-40.55,33.76-38.57,4.85-81-2.77-81-2.77,3.13,4.3,41.89,18.19,54,21.7,13.69,4,42,4.08,58.81-7.28,10.72-7.27,17.88,2.67,20.4,12.25.72,2.74.59,2,.72,2.74,3.18,16.43,1.58,27.39-.79,33-13.29-10.26-30.13-14.79-43.38-9.54-20.16,8-32.26,38.75-17.16,68.48-5.86-7.8-14.9-11.43-22-9.23-10.43,3.22-13.68,18-10.07,26.72,5.77,13.91,31.71,18.56,47.2,11.07,18.38-8.9,27.58-37.59,16.24-68.41-3.54,19.76,3.34,38.51,17.43,47.23,20.13,12.45,47.15-.42,59.31-13.1,21.13-22,18.53-66-11-105.23-1.5-2.26-3.45-8.49-4.57-18.44C386.59,344.78,388.42,334.75,390,330.69Z"/><path class="cls-3" d="M99.37,164.16C121,99.21,193,63.52,260.1,84.43s104.05,90.51,82.43,155.46S248.94,340.53,181.8,319.61,77.74,229.1,99.37,164.16Z"/><line class="cls-4" x1="92" y1="656.5" x2="410" y2="656.5"/></g><g id="malloc"><rect class="cls-5" x="210.72" y="123.61" width="89.74" height="86.79" rx="12" ry="12"/><rect class="cls-5" x="147.75" y="184.9" width="98.06" height="94.85" rx="12" ry="12"/><rect class="cls-5" x="164.87" y="145.08" width="113.79" height="110.06" rx="12" ry="12"/><text class="cls-6" transform="translate(167.27 596.52)">MALLOC</text><text class="cls-7" transform="translate(190.41 713.03) rotate(-0.21)">Ski<tspan class="cls-8" x="38.88" y="0">l</tspan><tspan x="46.11" y="0">ls: C</tspan></text></g></g></svg>